<?xml version="1.0" encoding="utf-8"?>
<!-- Generator: Adobe Illustrator 26.5.0, SVG Export Plug-In . SVG Version: 6.00 Build 0)  -->
<svg version="1.1" id="Layer_1" xmlns="http://www.w3.org/2000/svg" xmlns:xlink="http://www.w3.org/1999/xlink" x="0px" y="0px"
	 viewBox="0 0 24 24" style="enable-background:new 0 0 24 24;" xml:space="preserve">
<style type="text/css">
	.st0{fill-rule:evenodd;clip-rule:evenodd;fill:#FFFFFF;filter:url(#Adobe_OpacityMaskFilter);}
	.st1{mask:url(#path-1-inside-1_36_1444_00000009579776332504351370000016144275658519515811_);fill:#FFFFFF;}
</style>
<g id="Comment">
	<g id="Union">
		<defs>
			<filter id="Adobe_OpacityMaskFilter" filterUnits="userSpaceOnUse" x="-0.8" y="-0.8" width="25.6" height="25.6">
				<feColorMatrix  type="matrix" values="1 0 0 0 0  0 1 0 0 0  0 0 1 0 0  0 0 0 1 0"/>
			</filter>
		</defs>
		
			<mask maskUnits="userSpaceOnUse" x="-0.8" y="-0.8" width="25.6" height="25.6" id="path-1-inside-1_36_1444_00000009579776332504351370000016144275658519515811_">
			<path class="st0" d="M21.5,17.6c1-1.6,1.5-3.6,1.5-5.6c0-6.1-4.9-11-11-11C5.9,1,1,5.9,1,12c0,6.1,4.9,11,11,11
				c2.1,0,4-0.6,5.6-1.6l5.2,1.4L21.5,17.6z"/>
		</mask>
		<path class="st1" d="M21.5,17.6l-1.5-0.9c-0.2,0.4-0.3,0.9-0.2,1.4L21.5,17.6z M17.6,21.4l0.5-1.7c-0.5-0.1-1-0.1-1.4,0.2
			L17.6,21.4z M22.8,22.8l-0.5,1.7c0.6,0.2,1.3,0,1.7-0.5c0.5-0.5,0.6-1.1,0.5-1.7L22.8,22.8z M21.2,12c0,1.7-0.5,3.3-1.3,4.7
			l3.1,1.8c1.1-1.9,1.8-4.2,1.8-6.6H21.2z M12,2.8c5.1,0,9.2,4.1,9.2,9.2h3.6c0-7.1-5.7-12.8-12.8-12.8V2.8z M2.8,12
			c0-5.1,4.1-9.2,9.2-9.2v-3.6C4.9-0.8-0.8,4.9-0.8,12H2.8z M12,21.2c-5.1,0-9.2-4.1-9.2-9.2h-3.6c0,7.1,5.7,12.8,12.8,12.8V21.2z
			 M16.7,19.9c-1.4,0.8-3,1.3-4.7,1.3v3.6c2.4,0,4.6-0.7,6.6-1.8L16.7,19.9z M17.2,23.2l5.2,1.4l0.9-3.5l-5.2-1.4L17.2,23.2z
			 M24.6,22.4l-1.4-5.2l-3.5,0.9l1.4,5.2L24.6,22.4z"/>
	</g>
</g>
</svg>
