<svg width="24" height="24" viewBox="0 0 24 24" fill="none" xmlns="http://www.w3.org/2000/svg">
<g id="Comment">
<g id="Union">
<mask id="path-1-inside-1_36_1444" fill="white">
<path fill-rule="evenodd" clip-rule="evenodd" d="M21.452 17.6305C22.4353 15.9834 23.0002 14.0577 23.0002 12C23.0002 5.92487 18.0754 1 12.0002 1C5.92511 1 1.00024 5.92487 1.00024 12C1.00024 18.0751 5.92511 23 12.0002 23C14.0623 23 15.9918 22.4326 17.6411 21.4455L22.848 22.8407L21.452 17.6305Z"/>
</mask>
<path d="M21.452 17.6305L19.9064 16.7078C19.657 17.1255 19.5874 17.6264 19.7133 18.0963L21.452 17.6305ZM17.6411 21.4455L18.107 19.7068C17.6364 19.5807 17.1348 19.6508 16.7168 19.901L17.6411 21.4455ZM22.848 22.8407L22.3822 24.5793C23.0033 24.7458 23.6661 24.5682 24.1208 24.1135C24.5756 23.6587 24.7531 22.996 24.5867 22.3748L22.848 22.8407ZM21.2002 12C21.2002 13.7239 20.7278 15.3319 19.9064 16.7078L22.9975 18.5531C24.1427 16.6348 24.8002 14.3915 24.8002 12H21.2002ZM12.0002 2.8C17.0813 2.8 21.2002 6.91898 21.2002 12H24.8002C24.8002 4.93076 19.0695 -0.8 12.0002 -0.8V2.8ZM2.80024 12C2.80024 6.91898 6.91922 2.8 12.0002 2.8V-0.8C4.931 -0.8 -0.799756 4.93076 -0.799756 12H2.80024ZM12.0002 21.2C6.91922 21.2 2.80024 17.081 2.80024 12H-0.799756C-0.799756 19.0692 4.931 24.8 12.0002 24.8V21.2ZM16.7168 19.901C15.3389 20.7256 13.7277 21.2 12.0002 21.2V24.8C14.3968 24.8 16.6446 24.1397 18.5655 22.99L16.7168 19.901ZM17.1753 23.1842L22.3822 24.5793L23.3139 21.102L18.107 19.7068L17.1753 23.1842ZM24.5867 22.3748L23.1906 17.1646L19.7133 18.0963L21.1094 23.3065L24.5867 22.3748Z" fill="black" mask="url(#path-1-inside-1_36_1444)"/>
</g>
</g>
</svg>
