<?xml version="1.0" encoding="UTF-8"?>
<svg id="Layer_1" data-name="Layer 1" xmlns="http://www.w3.org/2000/svg" viewBox="0 0 20.5 20.5">
  <defs>
    <style>
      .cls-1 {
        fill: #fff;
      }

      .cls-2 {
        fill: #231f20;
      }
    </style>
  </defs>
  <path class="cls-2" d="M16.24,4.94c1.34,1.49,2.01,3.26,2.01,5.31s-.67,3.82-2.01,5.31-3.01,2.36-4.99,2.61V2.32c1.98,.25,3.65,1.13,4.99,2.62Z"/>
  <path class="cls-1" d="M18.25,10.25c0-2.05-.67-3.82-2.01-5.31s-3.01-2.37-4.99-2.62v15.85c1.98-.25,3.65-1.12,4.99-2.61s2.01-3.26,2.01-5.31Zm1.21-3.9c.53,1.22,.79,2.52,.79,3.9s-.26,2.68-.79,3.9c-.52,1.22-1.23,2.27-2.13,3.17s-1.96,1.62-3.18,2.14c-1.22,.53-2.52,.79-3.9,.79s-2.68-.26-3.9-.79c-1.22-.52-2.27-1.24-3.17-2.14s-1.62-1.95-2.14-3.17c-.53-1.22-.79-2.52-.79-3.9s.26-2.68,.79-3.9c.52-1.22,1.24-2.28,2.14-3.18s1.95-1.61,3.17-2.13c1.22-.53,2.52-.79,3.9-.79s2.68,.26,3.9,.79c1.22,.52,2.28,1.23,3.18,2.13s1.61,1.96,2.13,3.18Z"/>
</svg>