<svg width="23" height="23" viewBox="0 0 23 23" fill="none" xmlns="http://www.w3.org/2000/svg">
<mask id="path-1-inside-1_143_2737" fill="white">
<path d="M10.8612 19.1667C9.53547 19.1667 8.28964 18.9151 7.12366 18.412C5.95769 17.9089 4.94346 17.226 4.08096 16.3635C3.21846 15.501 2.53564 14.4868 2.03252 13.3208C1.52939 12.1549 1.27783 10.909 1.27783 9.58333C1.27783 8.25764 1.52939 7.01181 2.03252 5.84583C2.53564 4.67986 3.21846 3.66562 4.08096 2.80312C4.94346 1.94062 5.95769 1.25781 7.12366 0.754687C8.28964 0.251562 9.53547 0 10.8612 0C12.1869 0 13.4327 0.251562 14.5987 0.754687C15.7646 1.25781 16.7789 1.94062 17.6414 2.80312C18.5039 3.66562 19.1867 4.67986 19.6898 5.84583C20.1929 7.01181 20.4445 8.25764 20.4445 9.58333C20.4445 10.909 20.1929 12.1549 19.6898 13.3208C19.1867 14.4868 18.5039 15.501 17.6414 16.3635C16.7789 17.226 15.7646 17.9089 14.5987 18.412C13.4327 18.9151 12.1869 19.1667 10.8612 19.1667ZM11.8195 17.1781C13.7202 16.9385 15.3134 16.104 16.5992 14.6745C17.8849 13.245 18.5278 11.5479 18.5278 9.58333C18.5278 7.61875 17.8849 5.9217 16.5992 4.49219C15.3134 3.06267 13.7202 2.22812 11.8195 1.98854V17.1781Z"/>
</mask>
<path d="M10.8612 19.1667C9.53547 19.1667 8.28964 18.9151 7.12366 18.412C5.95769 17.9089 4.94346 17.226 4.08096 16.3635C3.21846 15.501 2.53564 14.4868 2.03252 13.3208C1.52939 12.1549 1.27783 10.909 1.27783 9.58333C1.27783 8.25764 1.52939 7.01181 2.03252 5.84583C2.53564 4.67986 3.21846 3.66562 4.08096 2.80312C4.94346 1.94062 5.95769 1.25781 7.12366 0.754687C8.28964 0.251562 9.53547 0 10.8612 0C12.1869 0 13.4327 0.251562 14.5987 0.754687C15.7646 1.25781 16.7789 1.94062 17.6414 2.80312C18.5039 3.66562 19.1867 4.67986 19.6898 5.84583C20.1929 7.01181 20.4445 8.25764 20.4445 9.58333C20.4445 10.909 20.1929 12.1549 19.6898 13.3208C19.1867 14.4868 18.5039 15.501 17.6414 16.3635C16.7789 17.226 15.7646 17.9089 14.5987 18.412C13.4327 18.9151 12.1869 19.1667 10.8612 19.1667ZM11.8195 17.1781C13.7202 16.9385 15.3134 16.104 16.5992 14.6745C17.8849 13.245 18.5278 11.5479 18.5278 9.58333C18.5278 7.61875 17.8849 5.9217 16.5992 4.49219C15.3134 3.06267 13.7202 2.22812 11.8195 1.98854V17.1781Z" fill="black"/>
<path d="M11.8195 17.1781H-50.1805V87.4839L19.5733 78.6914L11.8195 17.1781ZM11.8195 1.98854L19.5733 -59.5247L-50.1805 -68.3172V1.98854H11.8195ZM10.8612 -42.8333C17.6048 -42.8333 24.7564 -41.5053 31.6878 -38.5143L-17.4404 75.3383C-8.17713 79.3355 1.46618 81.1667 10.8612 81.1667V-42.8333ZM31.6878 -38.5143C37.4158 -36.0426 43.0163 -32.3824 47.9216 -27.4771L-39.7597 60.2042C-33.1294 66.8345 -25.5004 71.8604 -17.4404 75.3383L31.6878 -38.5143ZM47.9216 -27.4771C52.8269 -22.5718 56.4871 -16.9713 58.9588 -11.2433L-54.8938 37.8849C-51.4159 45.9449 -46.39 53.5739 -39.7597 60.2042L47.9216 -27.4771ZM58.9588 -11.2433C61.9498 -4.31193 63.2778 2.8397 63.2778 9.58333H-60.7222C-60.7222 18.9783 -58.891 28.6216 -54.8938 37.8849L58.9588 -11.2433ZM63.2778 9.58333C63.2778 16.327 61.9497 23.4786 58.9588 30.4099L-54.8938 -18.7183C-58.891 -9.45499 -60.7222 0.188308 -60.7222 9.58333H63.2778ZM58.9588 30.4099C56.4871 36.138 52.8269 41.7384 47.9216 46.6437L-39.7597 -41.0375C-46.39 -34.4072 -51.4159 -26.7783 -54.8938 -18.7183L58.9588 30.4099ZM47.9216 46.6437C43.0163 51.549 37.4158 55.2093 31.6878 57.681L-17.4404 -56.1716C-25.5004 -52.6937 -33.1294 -47.6678 -39.7597 -41.0375L47.9216 46.6437ZM31.6878 57.681C24.7564 60.6719 17.6048 62 10.8612 62V-62C1.46614 -62 -8.17716 -60.1688 -17.4404 -56.1716L31.6878 57.681ZM10.8612 62C4.11754 62 -3.0341 60.6719 -9.96543 57.681L39.1628 -56.1716C29.8995 -60.1688 20.2562 -62 10.8612 -62V62ZM-9.96543 57.681C-15.6935 55.2093 -21.2939 51.549 -26.1992 46.6437L61.482 -41.0375C54.8517 -47.6678 47.2227 -52.6937 39.1628 -56.1716L-9.96543 57.681ZM-26.1992 46.6437C-31.1045 41.7384 -34.7648 36.138 -37.2365 30.4099L76.6161 -18.7183C73.1382 -26.7783 68.1123 -34.4072 61.482 -41.0375L-26.1992 46.6437ZM-37.2365 30.4099C-40.2274 23.4786 -41.5555 16.3269 -41.5555 9.58333H82.4445C82.4445 0.188344 80.6133 -9.45496 76.6161 -18.7183L-37.2365 30.4099ZM-41.5555 9.58333C-41.5555 2.83974 -40.2274 -4.3119 -37.2365 -11.2433L76.6161 37.8849C80.6133 28.6216 82.4445 18.9783 82.4445 9.58333H-41.5555ZM-37.2365 -11.2433C-34.7648 -16.9713 -31.1045 -22.5718 -26.1992 -27.4771L61.482 60.2042C68.1123 53.5739 73.1382 45.9449 76.6161 37.8849L-37.2365 -11.2433ZM-26.1992 -27.4771C-21.2939 -32.3824 -15.6935 -36.0426 -9.96543 -38.5143L39.1628 75.3383C47.2227 71.8604 54.8517 66.8345 61.482 60.2042L-26.1992 -27.4771ZM-9.96543 -38.5143C-3.03407 -41.5053 4.11757 -42.8333 10.8612 -42.8333V81.1667C20.2561 81.1667 29.8995 79.3355 39.1628 75.3383L-9.96543 -38.5143ZM19.5733 78.6914C36.3073 76.582 51.4919 68.593 62.6962 56.1361L-29.4979 -26.7871C-20.8651 -36.385 -8.86688 -42.705 4.06573 -44.3351L19.5733 78.6914ZM62.6962 56.1361C74.4638 43.0528 80.5278 26.4898 80.5278 9.58333H-43.4722C-43.4722 3.6834 -42.4823 -2.90611 -39.9335 -9.63432C-37.3766 -16.384 -33.6799 -22.1375 -29.4979 -26.7871L62.6962 56.1361ZM80.5278 9.58333C80.5278 -7.32319 74.4638 -23.8862 62.6962 -36.9694L-29.4979 45.9538C-33.6799 41.3042 -37.3766 35.5507 -39.9335 28.801C-42.4823 22.0728 -43.4722 15.4833 -43.4722 9.58333H80.5278ZM62.6962 -36.9694C51.4919 -49.4264 36.3073 -57.4154 19.5733 -59.5247L4.06573 63.5018C-8.86687 61.8716 -20.8651 55.5517 -29.4979 45.9538L62.6962 -36.9694ZM-50.1805 1.98854V17.1781H73.8195V1.98854H-50.1805Z" fill="black" mask="url(#path-1-inside-1_143_2737)"/>
</svg>
