<svg width="390" height="844" viewBox="0 0 390 844" fill="none" xmlns="http://www.w3.org/2000/svg">
<path fill-rule="evenodd" clip-rule="evenodd" d="M0 0H40C17.9086 0 1.01793e-05 17.9086 9.90711e-06 40L0 804V0ZM0 804C0 826.068 17.8704 843.962 39.9294 844H0V804ZM390 40C390 17.9086 372.091 0 350 0H390V40ZM350.071 844C372.13 843.962 390 826.068 390 804V844H350.071ZM259.235 35H132.765C122.905 35 114.912 23.3738 114.912 8.9882L114.917 4.71685C114.917 4.61139 114.911 4.50543 114.885 4.40323C114.364 2.35526 113.158 0.760922 111.692 0.24414L111 0H281L280.308 0.24414C278.835 0.763416 277.637 2.3405 277.12 4.40323C277.094 4.50602 277.083 4.60945 277.083 4.71542L277.088 9.03226C277.088 23.3738 269.095 35 259.235 35Z" fill="black"/>
</svg>
