<?xml version="1.0" encoding="UTF-8"?>
<svg id="Layer_2" data-name="Layer 2" xmlns="http://www.w3.org/2000/svg" viewBox="0 0 22 20.14">
  <defs>
    <style>
      .cls-1 {
        fill: none;
        stroke: #fff;
        stroke-width: 1.8px;
      }
    </style>
  </defs>
  <g id="Layer_1-2" data-name="Layer 1">
    <path class="cls-1" d="M10.41,3.55l.66,.65,.63-.68c.14-.15,.27-.29,.38-.42,.22-.25,.42-.47,.65-.68h0c1.82-1.69,4.16-1.96,5.92-.87,1.86,1.15,2.86,3.61,2.28,5.99h0c-.55,2.25-1.88,4.07-3.5,5.86l.67,.6-.67-.6c-1.91,2.11-4.11,3.89-6.43,5.62-3.18-2.38-6.16-4.81-8.36-8.05h0c-1.01-1.48-1.7-2.99-1.74-4.68h0c-.04-2.24,1.2-4.23,2.96-5.01h0c1.75-.77,3.94-.33,5.55,1.28,.2,.2,.4,.4,.62,.61,.12,.12,.25,.25,.38,.38Z"/>
  </g>
</svg>