<svg width="22" height="22" viewBox="0 0 22 22" fill="none" xmlns="http://www.w3.org/2000/svg">
<path fill-rule="evenodd" clip-rule="evenodd" d="M21.0002 10.5358V21H15.0002L15.0002 16C15.0002 13.7909 13.2094 12 11.0002 12C8.79111 12 7.00024 13.7909 7.00024 16V21H1.00024L1.00024 10.5358L11.0002 1L21.0002 10.5358Z" fill="black"/>
<path d="M21.0002 21V21.5H21.5002V21H21.0002ZM21.0002 10.5358H21.5002V10.3217L21.3453 10.1739L21.0002 10.5358ZM15.0002 21H14.5002V21.5H15.0002V21ZM7.00024 21V21.5H7.50024V21H7.00024ZM1.00024 21H0.500244V21.5H1.00024V21ZM1.00024 10.5358L0.65519 10.1739L0.500244 10.3217L0.500244 10.5358H1.00024ZM11.0002 1L11.3453 0.638147L11.0002 0.309111L10.6552 0.638147L11.0002 1ZM21.5002 21V10.5358H20.5002V21H21.5002ZM15.0002 21.5H21.0002V20.5H15.0002V21.5ZM15.5002 21L15.5002 16H14.5002L14.5002 21H15.5002ZM15.5002 16C15.5002 13.5147 13.4855 11.5 11.0002 11.5V12.5C12.9332 12.5 14.5002 14.067 14.5002 16H15.5002ZM11.0002 11.5C8.51496 11.5 6.50024 13.5147 6.50024 16H7.50024C7.50024 14.067 9.06725 12.5 11.0002 12.5V11.5ZM6.50024 16V21H7.50024V16H6.50024ZM1.00024 21.5H7.00024V20.5H1.00024V21.5ZM0.500244 10.5358L0.500244 21H1.50024L1.50024 10.5358H0.500244ZM10.6552 0.638147L0.65519 10.1739L1.3453 10.8976L11.3453 1.36185L10.6552 0.638147ZM21.3453 10.1739L11.3453 0.638147L10.6552 1.36185L20.6552 10.8976L21.3453 10.1739Z" fill="black"/>
</svg>
