<?xml version="1.0" encoding="UTF-8"?>
<svg id="Layer_1" data-name="Layer 1" xmlns="http://www.w3.org/2000/svg" viewBox="0 0 21.8 22.14">
  <defs>
    <style>
      .cls-1 {
        fill: #fff;
      }
    </style>
  </defs>
  <path class="cls-1" d="M20.9,21.24v.9h.9v-.9h-.9Zm0-10.46h.9v-.39l-.28-.27-.62,.65Zm-6,10.46h-.9v.9h.9v-.9Zm-8,0v.9h.9v-.9h-.9Zm-6,0H0v.9H.9v-.9ZM.9,10.78l-.62-.65-.28,.27v.39H.9ZM10.9,1.24l.62-.65-.62-.59-.62,.59,.62,.65Zm10.9,20V10.78h-1.8v10.46h1.8Zm-6.9,.9h6v-1.8h-6v1.8Zm.9-.9v-5h-1.8v5h1.8Zm0-5c0-2.71-2.19-4.9-4.9-4.9v1.8c1.71,0,3.1,1.39,3.1,3.1h1.8Zm-4.9-4.9c-2.71,0-4.9,2.19-4.9,4.9h1.8c0-1.71,1.39-3.1,3.1-3.1v-1.8Zm-4.9,4.9v5h1.8v-5h-1.8ZM.9,22.14H6.9v-1.8H.9v1.8ZM0,10.78v10.46H1.8V10.78H0ZM10.28,.59L.28,10.13l1.24,1.3L11.52,1.89l-1.24-1.3Zm11.24,9.54L11.52,.59l-1.24,1.3,10,9.54,1.24-1.3Z"/>
</svg>