<svg width="104" height="30" viewBox="0 0 104 30" fill="none" xmlns="http://www.w3.org/2000/svg">
<path fill-rule="evenodd" clip-rule="evenodd" d="M5.3493 0.103386C3.22399 1.01086 0.881602 3.5683 0.144557 6.78057C-0.789369 10.8488 3.10283 12.5709 3.42592 12.0089C3.79444 11.3437 2.72421 11.1169 2.50209 9.00802C2.21434 6.28043 3.46631 3.23316 5.03631 1.89772C5.32911 1.65022 5.31397 1.99568 5.31397 2.63504C5.31397 3.7797 5.25339 14.0456 5.25339 16.1853C5.25339 19.0831 5.13728 20.0009 4.92525 20.9032C4.70818 21.821 4.3649 22.4397 4.6274 22.6769C4.9202 22.945 6.16712 22.3108 6.88397 21.2848C7.74722 20.0576 8.05012 18.5829 8.10565 16.9845C8.17128 15.051 8.16623 11.9934 8.17128 10.2455C8.17128 8.64193 8.19652 3.95501 8.14604 1.13461C8.12584 0.448846 6.24285 -0.273011 5.3493 0.103386ZM103.523 15.3294C103.215 15.3294 103.073 15.6543 102.957 16.1957C102.553 18.088 102.129 18.5159 101.579 18.5159C100.968 18.5159 100.418 17.5775 100.277 15.7007C100.166 14.226 100.181 11.5087 100.322 8.80693C100.352 8.25007 100.201 7.70352 98.7369 7.16212C98.1059 6.9301 97.1871 6.58464 96.7327 7.70867C95.4454 10.8694 94.9406 13.3804 94.8195 14.4013C94.8144 14.4529 94.7488 14.4632 94.7387 14.3446C94.663 13.5248 94.4964 12.0398 94.4711 8.92036C94.4661 8.31194 94.3399 7.79117 93.6786 7.36837C93.2495 7.09509 91.947 6.60526 91.4775 7.1879C91.0737 7.66227 90.5991 8.93583 90.1094 10.4466C89.7106 11.6737 89.438 12.5039 89.438 12.5039C89.438 12.5039 89.4431 9.18848 89.4481 7.93554C89.4481 7.46118 89.1301 7.3065 89.0342 7.27556C88.6 7.14666 87.7418 6.93525 87.3783 6.93525C86.929 6.93525 86.823 7.1879 86.823 7.55915C86.823 7.60555 86.7524 11.9212 86.7524 14.9376V15.3655C86.505 16.7525 85.7023 18.6345 84.829 18.6345C83.9506 18.6345 83.5417 17.8508 83.5417 14.2518C83.5417 12.1533 83.6022 11.2406 83.6325 9.72472C83.6477 8.85333 83.683 8.17788 83.683 8.02835C83.678 7.55915 82.8803 7.32712 82.5118 7.23947C82.1383 7.15181 81.8152 7.11572 81.5628 7.13119C81.2043 7.15181 80.9519 7.38899 80.9519 7.71899C80.9519 7.89429 80.9519 8.22944 80.9519 8.22944C80.4925 7.49727 79.7555 6.98682 79.2607 6.83729C77.9381 6.44027 76.5549 6.79088 75.5099 8.27585C74.682 9.45144 74.1822 10.7869 73.9853 12.705C73.8389 14.1074 73.8894 15.5305 74.1418 16.7319C73.8339 18.088 73.2584 18.6448 72.6324 18.6448C71.7237 18.6448 71.0624 17.1341 71.1381 14.5199C71.1886 12.8029 71.5268 11.5964 71.8953 9.84847C72.0518 9.10598 71.9256 8.71412 71.6025 8.34288C71.3098 8.00257 70.6787 7.82726 69.7751 8.03867C69.134 8.19335 68.2101 8.35835 67.3721 8.48209C67.3721 8.48209 67.4226 8.27585 67.463 7.91492C67.6801 6.01231 65.6456 6.16699 64.9944 6.77541C64.6057 7.1415 64.3432 7.56946 64.2422 8.33772C64.0857 9.55972 65.0651 10.1372 65.0651 10.1372C64.742 11.6325 63.9545 13.5867 63.1417 14.9994C62.7075 15.7574 62.3693 16.3194 61.9402 16.9124C61.9402 16.6906 61.9402 16.4689 61.9352 16.2472C61.9251 13.102 61.9654 10.627 61.9856 9.73503C62.0008 8.86365 62.0361 8.20882 62.0361 8.05413C62.0311 7.71383 61.8342 7.58493 61.4253 7.41993C61.0618 7.27556 60.6377 7.17759 60.1935 7.1415C59.6382 7.09509 59.3 7.39931 59.3101 7.75508C59.3101 7.82211 59.3101 8.2346 59.3101 8.2346C58.8507 7.50243 58.1136 6.99197 57.6189 6.84244C56.2963 6.44542 54.913 6.79604 53.868 8.281C53.0401 9.4566 52.5 11.1117 52.3435 12.6946C52.2021 14.1693 52.2274 15.4222 52.4242 16.4792C52.2122 17.5363 51.6064 18.6448 50.9249 18.6448C50.0516 18.6448 49.5518 17.8611 49.5518 14.2621C49.5518 12.1636 49.6124 11.2509 49.6427 9.73503C49.6628 8.86365 49.6931 8.18819 49.6931 8.03867C49.6881 7.56946 48.8905 7.33743 48.5219 7.24978C48.1332 7.15697 47.8 7.12603 47.5426 7.14666C47.2044 7.17244 46.9671 7.4818 46.9671 7.70867V8.23975C46.5077 7.50758 45.7656 6.99713 45.2759 6.8476C43.9533 6.45058 42.5802 6.81151 41.5301 8.28616C40.8436 9.25036 40.2882 10.3177 40.0055 12.6792C39.9197 13.3598 39.8844 13.9991 39.8894 14.5973C39.6168 16.2988 38.4103 18.253 37.4259 18.253C36.8504 18.253 36.3001 17.1134 36.3001 14.6901C36.3001 11.4572 36.497 6.85791 36.5324 6.41449C36.5324 6.41449 37.7793 6.39386 38.0216 6.38871C38.6425 6.38355 39.2079 6.39902 40.0358 6.35261C40.4498 6.33199 40.8486 4.81609 40.4246 4.63047C40.2277 4.54281 38.8545 4.47063 38.3093 4.46031C37.8752 4.43453 36.598 4.33657 36.598 4.33657C36.598 4.33657 36.7141 1.28414 36.7393 0.959303C36.7595 0.691184 36.4162 0.551969 36.2244 0.469471C35.7448 0.263226 35.3208 0.165259 34.8159 0.0621369C34.1142 -0.0873908 33.8012 0.0569808 33.7356 0.660248C33.6397 1.56773 33.5943 4.2386 33.5943 4.2386C33.0793 4.2386 31.3276 4.13548 30.8177 4.13548C30.3381 4.13548 29.8283 6.21855 30.4845 6.24433C31.2418 6.27527 32.5644 6.30105 33.4428 6.32683C33.4428 6.32683 33.4024 11.0034 33.4024 12.4472C33.4024 12.5967 33.4024 12.7462 33.4024 12.8906C32.9229 15.448 31.2216 16.8247 31.2216 16.8247C31.5851 15.1335 30.843 13.8651 29.5001 12.7926C29.0054 12.3956 28.0311 11.648 26.9356 10.823C26.9356 10.823 27.5667 10.1888 28.1321 8.91521C28.5309 8.01289 28.546 6.9765 27.5717 6.74963C25.9613 6.37324 24.6286 7.57461 24.2348 8.86365C23.9269 9.85878 24.0935 10.5961 24.6942 11.3644C24.7346 11.4211 24.7851 11.4778 24.8356 11.5345C24.4721 12.2512 23.9723 13.2103 23.5483 13.9527C22.372 16.0204 21.4835 17.6548 20.8121 17.6548C20.277 17.6548 20.282 15.9946 20.282 14.4426C20.282 13.102 20.3779 11.0911 20.4587 9.00286C20.484 8.31194 20.1457 7.92007 19.5753 7.5643C19.232 7.34774 18.495 6.91979 18.0658 6.91979C17.4247 6.91979 15.5821 7.00744 13.8405 12.1326C13.6234 12.7771 13.1892 13.9579 13.1892 13.9579L13.2246 7.79633C13.2246 7.65196 13.1489 7.51274 12.9772 7.41477C12.6844 7.24978 11.8969 6.91979 11.2002 6.91979C10.867 6.91979 10.7005 7.07963 10.7005 7.39415L10.6399 17.0361C10.6399 17.7683 10.6601 18.6242 10.7307 18.9954C10.8014 19.3667 10.9175 19.676 11.0589 19.8565C11.2002 20.037 11.3668 20.1762 11.6344 20.2329C11.8868 20.2845 13.27 20.4649 13.3407 19.9287C13.4265 19.2842 13.4316 18.5881 14.1585 15.9946C15.2893 11.9522 16.7634 9.98253 17.455 9.28129C17.5762 9.15755 17.7175 9.15239 17.7074 9.35348C17.6771 10.2403 17.5762 12.4575 17.5055 14.3343C17.3187 19.3667 18.2173 20.2999 19.5046 20.2999C20.489 20.2999 21.8773 19.3048 23.3665 16.7886C24.2954 15.2212 25.194 13.6795 25.8452 12.5709C26.2945 12.9937 26.8044 13.4526 27.3092 13.9373C28.4854 15.0716 28.8691 16.1493 28.6167 17.1702C28.4198 17.9539 27.6828 18.7583 26.3702 17.9745C25.9866 17.7477 25.825 17.5723 25.4413 17.3094C25.2344 17.1702 24.9163 17.1289 24.7295 17.2784C24.2399 17.6548 23.9572 18.1344 23.7956 18.7273C23.6391 19.3048 24.2096 19.609 24.7952 19.8771C25.305 20.1092 26.3955 20.3154 27.0921 20.3412C29.803 20.434 31.9738 19.0109 33.4883 15.3397C33.7609 18.5108 34.9119 20.3051 36.911 20.3051C38.2488 20.3051 39.5916 18.5469 40.1772 16.8195C40.3438 17.5259 40.5962 18.1395 40.9142 18.6551C42.459 21.1404 45.4476 20.6041 46.9519 18.4953C47.4164 17.8456 47.4871 17.6084 47.4871 17.6084C47.7041 19.5987 49.2842 20.2948 50.1879 20.2948C51.1975 20.2948 52.2425 19.8101 52.9745 18.1344C53.0603 18.3148 53.1562 18.4901 53.2572 18.6551C54.7969 21.1404 57.7905 20.6041 59.2899 18.4953C59.3605 18.3973 59.4211 18.3097 59.4767 18.2272L59.5221 19.5368C59.5221 19.5368 58.6639 20.336 58.1389 20.8259C55.8217 22.9863 54.0599 24.6259 53.9286 26.5337C53.762 28.9674 55.7056 29.8697 57.1747 29.9883C58.7346 30.112 60.0723 29.2407 60.8902 28.0135C61.6121 26.9359 62.0866 24.6105 62.0513 22.3211C62.0361 21.4033 62.0159 20.2381 61.9957 18.9851C62.8085 18.0261 63.7273 16.8092 64.5703 15.3913C65.4891 13.8393 66.4786 11.7614 66.9834 10.1424C66.9834 10.1424 67.8416 10.1475 68.7553 10.0908C69.0481 10.0753 69.1289 10.1321 69.0784 10.3486C69.0128 10.6116 67.9224 14.886 68.9169 17.7322C69.5984 19.6812 71.1331 20.3102 72.0418 20.3102C73.1069 20.3102 74.1267 19.4956 74.6719 18.2787C74.7375 18.4128 74.8082 18.5417 74.8839 18.6654C76.4236 21.1507 79.4072 20.6093 80.9216 18.5056C81.2649 18.0312 81.4567 17.6187 81.4567 17.6187C81.7798 19.6812 83.3599 20.3154 84.2636 20.3154C85.2025 20.3154 86.0961 19.9235 86.823 18.1808C86.8533 18.949 86.9038 19.5781 86.9745 19.774C87.0199 19.8926 87.2875 20.0473 87.4844 20.1195C88.3476 20.4443 89.2209 20.2896 89.5491 20.2226C89.7763 20.1762 89.9479 19.9906 89.9731 19.5214C90.0337 18.2787 89.9984 16.1853 90.3669 14.6334C90.9878 12.0244 91.5684 11.0138 91.846 10.5136C91.9975 10.2352 92.1742 10.1888 92.1792 10.4827C92.1944 11.0859 92.2247 12.8442 92.4619 15.216C92.6386 16.9588 92.8759 17.99 93.0576 18.3148C93.5776 19.2481 94.2187 19.2893 94.7387 19.2893C95.0719 19.2893 95.7635 19.1965 95.7029 18.6036C95.6726 18.3148 95.7281 16.5308 96.339 13.9579C96.7428 12.2822 97.4092 10.7663 97.6515 10.2146C97.7424 10.0083 97.7828 10.1733 97.7828 10.2042C97.7323 11.3592 97.6162 15.1335 98.0806 17.2011C98.7066 20.0009 100.524 20.3102 101.155 20.3102C102.503 20.3102 103.608 19.2687 103.982 16.5205C104.053 15.845 103.921 15.3294 103.523 15.3294ZM46.9671 13.6331C46.8914 15.0871 46.6087 16.3039 46.1644 17.1856C45.3516 18.784 43.7513 19.2893 43.0446 16.9794C42.5347 15.314 42.7064 13.0453 42.9184 11.8181C43.2314 9.99799 44.0189 8.70896 45.2507 8.83271C46.5178 8.96161 47.1286 10.6116 46.9671 13.6331ZM59.3101 13.6537C59.2394 15.0252 58.886 16.4071 58.5074 17.1856C57.7199 18.7943 56.0691 19.2996 55.3876 16.9794C54.9231 15.3965 55.0342 13.3495 55.2614 12.0604C55.5592 10.3847 56.2862 8.83271 57.5937 8.83271C58.8658 8.83271 59.4918 10.2506 59.3101 13.6537ZM59.6331 23.0224C59.618 25.5282 59.2293 27.7196 58.3963 28.359C57.215 29.2613 55.6299 28.5858 55.958 26.7606C56.2508 25.1415 57.6189 23.4916 59.6331 21.4755C59.6382 21.4704 59.6382 21.9293 59.6331 23.0224ZM80.9368 13.6692C80.8661 15.1747 80.538 16.3555 80.1341 17.1856C79.3466 18.7943 77.7059 19.2945 77.0143 16.9794C76.6357 15.7213 76.6205 13.6124 76.8931 11.8542C77.1708 10.065 77.9432 8.70896 79.2254 8.83271C80.4824 8.95646 81.0731 10.6116 80.9368 13.6692Z" fill="black"/>
</svg>
