<svg width="24" height="24" viewBox="0 0 24 24" fill="none" xmlns="http://www.w3.org/2000/svg">
<g id="Message">
<path id="Vector" d="M5.81062 19.7478C5.832 19.4539 5.70812 19.1681 5.47898 18.9827C3.27945 17.2037 1.90024 14.5525 1.90024 11.5868C1.90024 6.27627 6.38772 1.9 12.01 1.9C17.6199 1.9 22.108 6.27565 22.108 11.5868C22.108 16.8966 17.6094 21.2735 11.9982 21.2735C11.0659 21.2735 10.1801 21.1544 9.32721 20.9277C9.1571 20.8825 8.97746 20.8882 8.81053 20.944L5.64667 22.0022L5.81062 19.7478Z" stroke="black" stroke-width="1.8" stroke-linejoin="round"/>
<path id="Vector_2" d="M10.1501 8.79533C10.2224 8.80575 10.2827 8.81618 10.355 8.82661C11.4282 9.05603 12.5255 10.0363 13.3696 10.6203C13.8398 10.954 14.2377 10.9227 14.708 10.6099C15.7088 9.92159 16.7458 9.2646 17.7707 8.58676C18.0481 8.39905 18.3375 8.20091 18.6751 8.45119C19.0489 8.72233 18.8198 9.01432 18.6269 9.28546C17.614 10.6829 16.6132 12.0803 15.5882 13.4672C14.8889 14.4266 13.9001 14.5622 12.839 13.8844C12.1035 13.4047 11.3438 12.9562 10.6203 12.4557C10.138 12.122 9.74008 12.1637 9.28188 12.4765C8.269 13.1648 7.24407 13.8218 6.21913 14.4996C5.9418 14.6874 5.65241 14.8855 5.31478 14.6248C4.97716 14.3745 5.15803 14.0929 5.3389 13.8322C6.38795 12.3931 7.42494 10.954 8.47399 9.51488C8.82367 9.02475 9.47481 8.73276 10.1501 8.79533Z" fill="black"/>
</g>
</svg>
