<svg width="24" height="24" viewBox="0 0 24 24" fill="none" xmlns="http://www.w3.org/2000/svg">
<g id="Notification">
<path id="Vector" d="M12.3142 6.18327L11.6644 5.55282C11.5299 5.42232 11.4004 5.29727 11.2747 5.17579C11.0549 4.96344 10.8464 4.76199 10.6417 4.56135C9.00096 2.95357 6.7426 2.49837 4.93323 3.2796L4.93307 3.27967C3.11932 4.06238 1.85727 6.05585 1.90136 8.28768L1.90136 8.28774C1.93467 9.97959 2.64352 11.4797 3.67659 12.964L3.67687 12.9644C5.9317 16.2077 8.9906 18.6438 12.2536 21.0297C14.631 19.2988 16.8953 17.5125 18.8505 15.3973L19.5114 16.0082L18.8505 15.3973C20.5096 13.6025 21.8749 11.787 22.4328 9.53903L22.4328 9.53879C23.0209 7.17217 22.0151 4.70661 20.1004 3.55445L12.3142 6.18327ZM12.3142 6.18327L12.9408 5.52965M12.3142 6.18327L12.9408 5.52965M12.9408 5.52965C13.0849 5.37928 13.2123 5.24119 13.332 5.11135C13.5618 4.86215 13.7635 4.64336 14.0022 4.42661L14.0025 4.42629M12.9408 5.52965L14.0025 4.42629M14.0025 4.42629C15.8656 2.73235 18.2785 2.45884 20.1002 3.55435L14.0025 4.42629ZM12.0875 21.1504C12.0877 21.1503 12.088 21.1501 12.0882 21.1499C12.088 21.1501 12.0878 21.1502 12.0876 21.1504L12.0875 21.1504ZM12.1767 21.1002L12.1837 21.0998C12.1899 21.0997 12.2041 21.0997 12.2252 21.1021C12.2455 21.1045 12.2816 21.1101 12.328 21.1253C12.3735 21.1401 12.4443 21.169 12.5217 21.2254L12.1767 21.1002Z" stroke="black" stroke-width="1.8"/>
</g>
</svg>
