<?xml version="1.0" encoding="UTF-8"?>
<svg id="Layer_1" data-name="Layer 1" xmlns="http://www.w3.org/2000/svg" viewBox="0 0 22.04 22.19">
  <defs>
    <style>
      .cls-1 {
        fill: none;
        stroke: #000;
        stroke-width: 1.5px;
      }
    </style>
  </defs>
  <path d="M11.02,0c-2.18,0-4.31,.65-6.12,1.87C3.08,3.09,1.67,4.82,.84,6.85,0,8.88-.21,11.11,.21,13.26c.43,2.15,1.47,4.13,3.02,5.68,1.54,1.55,3.5,2.61,5.64,3.04,2.14,.43,4.35,.21,6.37-.63,2.01-.84,3.73-2.26,4.94-4.09,1.21-1.82,1.86-3.97,1.86-6.16,0-2.94-1.17-5.76-3.23-7.84C16.74,1.17,13.94,0,11.02,0ZM6.3,19.32v-1.09c0-.63,.25-1.23,.69-1.68,.44-.45,1.04-.7,1.67-.7h4.72c.63,0,1.23,.25,1.67,.7,.44,.45,.69,1.05,.69,1.68v1.09c-1.43,.84-3.06,1.29-4.72,1.29s-3.29-.44-4.72-1.29Zm11.01-1.15c-.02-1.04-.44-2.03-1.17-2.76-.73-.73-1.73-1.14-2.76-1.14h-4.72c-1.03,0-2.02,.41-2.76,1.14s-1.16,1.72-1.17,2.76c-1.43-1.28-2.43-2.97-2.89-4.84-.45-1.87-.33-3.84,.35-5.64,.68-1.8,1.89-3.35,3.47-4.44,1.58-1.09,3.44-1.68,5.36-1.68s3.78,.59,5.36,1.68c1.58,1.09,2.78,2.64,3.47,4.44,.68,1.8,.8,3.77,.35,5.64-.45,1.87-1.46,3.56-2.89,4.84Z"/>
  <circle class="cls-1" cx="11.02" cy="8.91" r="3.97"/>
</svg>