<svg width="11" height="11" viewBox="0 0 11 11" fill="none" xmlns="http://www.w3.org/2000/svg">
<path fill-rule="evenodd" clip-rule="evenodd" d="M6.72864 1.89724C6.72864 1.34406 6.2802 0.89563 5.72703 0.89563C5.17386 0.89563 4.72542 1.34406 4.72542 1.89724L4.72542 4.90206H1.7206C1.16743 4.90206 0.718994 5.3505 0.718994 5.90367C0.718994 6.45684 1.16743 6.90528 1.7206 6.90528H4.72542L4.72542 9.9101C4.72542 10.4633 5.17386 10.9117 5.72703 10.9117C6.2802 10.9117 6.72864 10.4633 6.72864 9.9101L6.72864 6.90528L9.73346 6.90528C10.2866 6.90528 10.7351 6.45684 10.7351 5.90367C10.7351 5.3505 10.2866 4.90206 9.73346 4.90206L6.72864 4.90206L6.72864 1.89724Z" fill="white"/>
</svg>
