<svg width="327" height="12" viewBox="0 0 327 12" fill="none" xmlns="http://www.w3.org/2000/svg">
<path fill-rule="evenodd" clip-rule="evenodd" d="M300.283 4.98623C298.677 3.45943 296.546 2.60799 294.33 2.60789C292.114 2.60789 289.983 3.45933 288.377 4.98623C288.256 5.10428 288.062 5.1028 287.943 4.98289L286.787 3.81623C286.727 3.75546 286.693 3.67318 286.694 3.5876C286.694 3.50202 286.729 3.4202 286.79 3.36023C291.005 -0.67932 297.655 -0.67932 301.87 3.36023C301.931 3.42024 301.966 3.50209 301.966 3.58767C301.967 3.67325 301.933 3.7555 301.873 3.81623L300.717 4.98289C300.598 5.10261 300.404 5.1041 300.283 4.98623ZM297.624 7.67323C296.722 6.85602 295.548 6.40349 294.33 6.40356C293.114 6.40406 291.94 6.85656 291.039 7.67323C290.917 7.78921 290.724 7.78669 290.605 7.66756L289.451 6.50089C289.39 6.43979 289.356 6.35678 289.357 6.27049C289.358 6.18419 289.393 6.10184 289.455 6.04189C292.203 3.48551 296.459 3.48551 299.208 6.04189C299.27 6.10184 299.305 6.18415 299.306 6.27042C299.307 6.35668 299.273 6.4397 299.212 6.50089L298.058 7.66756C297.939 7.78669 297.746 7.78921 297.624 7.67323ZM296.549 9.18789C296.611 9.12729 296.645 9.04389 296.643 8.95738C296.642 8.87087 296.604 8.78893 296.54 8.73089C295.264 7.65201 293.396 7.65201 292.121 8.73089C292.056 8.78888 292.019 8.8708 292.017 8.95731C292.015 9.04381 292.049 9.12724 292.111 9.18789L294.109 11.2036C294.167 11.2628 294.247 11.2961 294.33 11.2961C294.414 11.2961 294.493 11.2628 294.552 11.2036L296.549 9.18789ZM310.333 2.33323C309.597 2.33323 309 2.93018 309 3.66656V8.33323C309 9.06961 309.597 9.66656 310.333 9.66656H325.667C326.403 9.66656 327 9.06961 327 8.33323V3.66656C327 2.93018 326.403 2.33323 325.667 2.33323H310.333ZM280.667 0.666557H279.667C279.114 0.666557 278.667 1.11427 278.667 1.66656V10.3332C278.667 10.8855 279.114 11.3332 279.667 11.3332H280.667C281.219 11.3332 281.667 10.8855 281.667 10.3332V1.66656C281.667 1.11427 281.219 0.666557 280.667 0.666557ZM275 2.99989H276C276.552 2.99989 277 3.44761 277 3.99989V10.3332C277 10.8855 276.552 11.3332 276 11.3332H275C274.448 11.3332 274 10.8855 274 10.3332V3.99989C274 3.44761 274.448 2.99989 275 2.99989ZM271.333 5.33322H270.333C269.781 5.33322 269.333 5.78094 269.333 6.33322V10.3332C269.333 10.8855 269.781 11.3332 270.333 11.3332H271.333C271.886 11.3332 272.333 10.8855 272.333 10.3332V6.33322C272.333 5.78094 271.886 5.33322 271.333 5.33322ZM266.667 7.33322H265.667C265.114 7.33322 264.667 7.78094 264.667 8.33322V10.3332C264.667 10.8855 265.114 11.3332 265.667 11.3332H266.667C267.219 11.3332 267.667 10.8855 267.667 10.3332V8.33322C267.667 7.78094 267.219 7.33322 266.667 7.33322ZM7.77881 6.45497C7.77881 9.77724 6.28857 11.7392 3.77979 11.7392C1.9751 11.7392 0.601074 10.6727 0.307129 9.05263H2.06396C2.28955 9.79774 2.9458 10.2626 3.79346 10.2626C5.23584 10.2626 6.09033 8.91591 6.09033 6.66005H5.97412C5.50928 7.59657 4.57275 8.13661 3.41748 8.13661C1.5376 8.13661 0.17041 6.75575 0.17041 4.85536C0.17041 2.83192 1.68799 1.38954 3.83447 1.38954C5.27686 1.38954 6.41846 2.07314 7.08154 3.33778C7.53955 4.15126 7.77881 5.20399 7.77881 6.45497ZM1.8999 4.80067C1.8999 5.9286 2.70654 6.73524 3.84131 6.73524C4.96924 6.73524 5.79639 5.9286 5.79639 4.82802C5.79639 3.71376 4.94873 2.85927 3.84814 2.85927C2.74756 2.85927 1.8999 3.70009 1.8999 4.80067ZM10.5955 5.32704C11.2449 5.32704 11.6892 4.86903 11.6892 4.2538C11.6892 3.63173 11.2449 3.17372 10.5955 3.17372C9.95291 3.17372 9.50174 3.63173 9.50174 4.2538C9.50174 4.86903 9.95291 5.32704 10.5955 5.32704ZM11.6892 9.37392C11.6892 9.98915 11.2449 10.454 10.5955 10.454C9.95291 10.454 9.50174 9.98915 9.50174 9.37392C9.50174 8.75185 9.95291 8.29384 10.5955 8.29384C11.2449 8.29384 11.6892 8.75185 11.6892 9.37392ZM19.9131 11.4999V9.66103H21.2462V8.17079H19.9131V1.63564H17.4249C15.6817 4.26064 14.294 6.45497 13.4053 8.08876V9.66103H18.2247V11.4999H19.9131ZM15.0391 8.21181H18.252V3.07118H18.1563C17.2129 4.46571 16.1876 6.08583 15.0391 8.10927V8.21181ZM26.9271 11.4999V1.63564H25.1703L22.5931 3.44032V5.13564L25.0472 3.41298H25.1634V11.4999H26.9271Z" fill="white"/>
</svg>
