<svg width="333" height="12" viewBox="0 0 333 12" fill="none" xmlns="http://www.w3.org/2000/svg">
<path fill-rule="evenodd" clip-rule="evenodd" d="M301.448 4.66314C299.839 3.13389 297.705 2.28109 295.485 2.28099C293.266 2.28098 291.131 3.13379 289.522 4.66314C289.401 4.78139 289.207 4.7799 289.088 4.65981L287.93 3.49126C287.869 3.4304 287.836 3.34799 287.836 3.26227C287.837 3.17655 287.872 3.0946 287.933 3.03453C292.155 -1.01151 298.815 -1.01151 303.037 3.03453C303.098 3.09464 303.133 3.17662 303.133 3.26234C303.134 3.34806 303.1 3.43044 303.04 3.49126L301.882 4.65981C301.763 4.77972 301.569 4.78121 301.448 4.66314ZM298.785 7.35437C297.881 6.53585 296.705 6.08259 295.485 6.08266C294.267 6.08317 293.092 6.53639 292.188 7.35437C292.066 7.47054 291.873 7.46802 291.754 7.34869L290.598 6.18015C290.537 6.11895 290.503 6.0358 290.504 5.94937C290.505 5.86294 290.54 5.78046 290.602 5.72041C293.355 3.15992 297.618 3.15992 300.37 5.72041C300.433 5.78046 300.468 5.8629 300.469 5.9493C300.47 6.03571 300.436 6.11886 300.375 6.18015L299.219 7.34869C299.099 7.46802 298.907 7.47054 298.785 7.35437ZM297.708 8.87147C297.77 8.81076 297.804 8.72723 297.802 8.64058C297.8 8.55394 297.763 8.47186 297.699 8.41373C296.421 7.33311 294.55 7.33311 293.272 8.41373C293.208 8.47181 293.17 8.55386 293.168 8.64051C293.167 8.72715 293.201 8.81072 293.262 8.87147L295.263 10.8904C295.322 10.9497 295.402 10.9831 295.485 10.9831C295.569 10.9831 295.649 10.9497 295.707 10.8904L297.708 8.87147ZM327.54 0.00268558C329.015 0.00268558 330.211 1.19851 330.211 2.67364V8.68329C330.211 10.1584 329.015 11.3542 327.54 11.3542H310.846C309.371 11.3542 308.175 10.1584 308.175 8.68329V2.67364C308.175 1.19851 309.371 0.00268558 310.846 0.00268558H327.54ZM327.54 1.0043H310.846C309.973 1.0043 309.256 1.67509 309.183 2.52961L309.177 2.67364V8.68329C309.177 9.55672 309.848 10.2735 310.702 10.3465L310.846 10.3526H327.54C328.413 10.3526 329.13 9.68185 329.203 8.82733L329.209 8.68329V2.67364C329.209 1.80021 328.538 1.08345 327.684 1.01043L327.54 1.0043ZM332.542 5.67855C332.542 6.55308 332.018 7.34244 331.212 7.68176V3.67533C332.018 4.01465 332.542 4.80401 332.542 5.67855ZM310.179 3.33919C310.179 2.60281 310.776 2.00586 311.512 2.00586H326.874C327.611 2.00586 328.208 2.60281 328.208 3.33919V8.01765C328.208 8.75403 327.611 9.35098 326.874 9.35098H311.512C310.776 9.35098 310.179 8.75403 310.179 8.01765V3.33919ZM281.8 0.336478H280.798C280.245 0.336478 279.796 0.784913 279.796 1.33809V10.0187C279.796 10.5719 280.245 11.0203 280.798 11.0203H281.8C282.353 11.0203 282.801 10.5719 282.801 10.0187V1.33809C282.801 0.784913 282.353 0.336478 281.8 0.336478ZM276.124 2.67348H277.125C277.678 2.67348 278.127 3.12192 278.127 3.67509V10.0186C278.127 10.5718 277.678 11.0202 277.125 11.0202H276.124C275.571 11.0202 275.122 10.5718 275.122 10.0186V3.67509C275.122 3.12192 275.571 2.67348 276.124 2.67348ZM272.451 5.01073H271.45C270.897 5.01073 270.448 5.45916 270.448 6.01234V10.0188C270.448 10.5719 270.897 11.0204 271.45 11.0204H272.451C273.004 11.0204 273.453 10.5719 273.453 10.0188V6.01234C273.453 5.45916 273.004 5.01073 272.451 5.01073ZM267.777 7.01394H266.775C266.222 7.01394 265.774 7.46238 265.774 8.01555V10.0188C265.774 10.5719 266.222 11.0204 266.775 11.0204H267.777C268.33 11.0204 268.779 10.5719 268.779 10.0188V8.01555C268.779 7.46238 268.33 7.01394 267.777 7.01394ZM8.47317 6.13436C8.47317 9.46196 6.98054 11.427 4.46772 11.427C2.66013 11.427 1.2839 10.3589 0.989478 8.73619H2.74914C2.97509 9.4825 3.63239 9.9481 4.48141 9.9481C5.92611 9.9481 6.78198 8.59925 6.78198 6.33976H6.66558C6.19999 7.27779 5.26196 7.8187 4.10483 7.8187C2.22192 7.8187 0.852539 6.43562 0.852539 4.53218C0.852539 2.50549 2.37256 1.06078 4.52249 1.06078C5.96719 1.06078 7.11063 1.74548 7.77478 3.01216C8.23353 3.82694 8.47317 4.88137 8.47317 6.13436ZM2.58489 4.4774C2.58489 5.60714 3.39283 6.41508 4.52942 6.41508C5.65916 6.41508 6.48764 5.60714 6.48764 4.50478C6.48764 3.38873 5.63862 2.53287 4.53627 2.53287C3.43391 2.53287 2.58489 3.37504 2.58489 4.4774ZM11.2944 5.00461C11.9449 5.00461 12.3899 4.54586 12.3899 3.92964C12.3899 3.30657 11.9449 2.84783 11.2944 2.84783C10.6508 2.84783 10.1989 3.30657 10.1989 3.92964C10.1989 4.54586 10.6508 5.00461 11.2944 5.00461ZM12.3899 9.05799C12.3899 9.67421 11.9449 10.1398 11.2944 10.1398C10.6508 10.1398 10.1989 9.67421 10.1989 9.05799C10.1989 8.43492 10.6508 7.97617 11.2944 7.97617C11.9449 7.97617 12.3899 8.43492 12.3899 9.05799ZM20.627 11.1874V9.34556H21.9622V7.85293H20.627V1.30727H18.1348C16.3888 3.93649 14.9989 6.13435 14.1088 7.77077V9.34556H18.9358V11.1874H20.627ZM15.7452 7.89401H18.9632V2.74512H18.8674C17.9225 4.1419 16.8955 5.76462 15.7452 7.79131V7.89401ZM27.6522 11.1874V1.30727H25.8926L23.3113 3.11486V4.81289L25.7693 3.08747H25.8857V11.1874H27.6522Z" fill="black"/>
</svg>
